<?xml version="1.0" encoding="UTF-8" standalone="no"?>
<svg viewBox="0 0 33 31" version="1.1" xmlns="http://www.w3.org/2000/svg" xmlns:xlink="http://www.w3.org/1999/xlink">
    <g id="Face" transform="translate(10.000000, 12.000000)">
        <path d="M17.1052632,30.9014607 C21.303197,30.9014607 33.2105263,28.6808128 33.2105263,23.7358451 C33.2105263,20.9539831 29.4719367,7.32714799 27.6250771,4.91913221 C25.7782175,2.51111643 21.840582,6.09775858e-16 17.1052632,0 C12.1469276,-6.33900824e-16 8.64161561,2.45225183 6.7552169,4.91913221 C4.86881819,7.38601258 1,20.9485903 1,23.7358451 C1,28.6808128 12.9073294,30.9014607 17.1052632,30.9014607 Z" id="Outline" fill="#D7F1E3"></path>
        <path d="M12.1800344,24.9083002 C15.1586015,24.3645871 17.1052632,22.2764972 17.1052632,22.2764972 C17.1052632,22.2764972 19.2013389,24.1704183 21.8417583,24.9083002 C24.4821777,25.6461821 30.7248407,26.8095452 30.7248407,27.6606688 C30.7248407,28.5117924 18.5473633,25.3067386 17.1052632,25.6365641 C15.6060341,25.3067386 3.52454256,28.4741257 3.52454256,27.6606688 C3.52454256,26.847212 9.20146741,25.4520132 12.1800344,24.9083002 Z" id="Beak" fill="#429A6A" transform="translate(17.124692, 25.040751) scale(1, -1) translate(-17.124692, -25.040751) "></path>
        <g id="Nose" transform="translate(14.455030, 16.589569)" fill="#429A6A">
            <ellipse id="Oval-7" cx="1.46302465" cy="0.829478458" rx="0.791472352" ry="0.829478458"></ellipse>
            <ellipse id="Oval-8" cx="3.83744171" cy="0.829478458" rx="0.791472352" ry="0.829478458"></ellipse>
        </g>
        <g id="Eyes" transform="translate(0.947368, 0.977987)">
            <g id="Left">
                <ellipse id="Oval-6" stroke="#A4D9BD" fill="#FFFFFF" cx="7.63157895" cy="7.92295482" rx="6.63157895" ry="6.92295482"></ellipse>
                <ellipse id="Pupil" fill="#429A6A" cx="8.57894737" cy="8.91194837" rx="3.78947368" ry="3.95597418"></ellipse>
            </g>
            <g id="Right" transform="translate(18.052632, 1.000000)">
                <ellipse id="Oval-6" stroke="#A4D9BD" fill="#FFFFFF" cx="6.63157895" cy="6.92295482" rx="6.63157895" ry="6.92295482"></ellipse>
                <ellipse id="Pupil" fill="#429A6A" cx="5.68421053" cy="7.91194837" rx="3.78947368" ry="3.95597418"></ellipse>
            </g>
        </g>
    </g>
</svg>